<?xml version="1.0" encoding="utf-8"?>
<!-- Generator: Adobe Illustrator 16.0.0, SVG Export Plug-In . SVG Version: 6.00 Build 0)  -->
<!DOCTYPE svg PUBLIC "-//W3C//DTD SVG 1.1//EN" "http://www.w3.org/Graphics/SVG/1.1/DTD/svg11.dtd">
<svg version="1.1" id="Ebene_1" xmlns="http://www.w3.org/2000/svg" xmlns:xlink="http://www.w3.org/1999/xlink" x="0px" y="0px"
	 width="50px" height="50px" viewBox="0 0 50 50" enable-background="new 0 0 50 50" xml:space="preserve">
<path fill="#FFFFFF" enable-background="new    " d="M40.753,12.447c-10.438,5.278-17.96,11.957-21.013,14.92l-7.84-5.07
	c-0.217-0.123-4.51,3.03-4.397,3.124L21.78,37.416c0.102,0.093,0.25,0.141,0.41,0.141c0.024,0,0.066,0,0.102-0.011
	c0.193-0.026,0.354-0.14,0.425-0.29c2.3-4.855,9.9-15.024,19.598-22.4c0.17-0.13,0.238-0.347,0.137-0.524
	c0-0.01-1.551-1.958-1.697-1.883L40.753,12.447z"/>
</svg>
