<?xml version="1.0" encoding="utf-8"?>
<!-- Generator: Adobe Illustrator 16.0.0, SVG Export Plug-In . SVG Version: 6.00 Build 0)  -->
<!DOCTYPE svg PUBLIC "-//W3C//DTD SVG 1.1//EN" "http://www.w3.org/Graphics/SVG/1.1/DTD/svg11.dtd">
<svg version="1.1" id="Ebene_1" xmlns="http://www.w3.org/2000/svg" xmlns:xlink="http://www.w3.org/1999/xlink" x="0px" y="0px"
	 width="80px" height="80px" viewBox="0 0 80 80" enable-background="new 0 0 80 80" xml:space="preserve">
<rect y="0.003" opacity="0.5" fill="#F2F2F2" width="80" height="79.994"/>
<path fill="#F2F2F2" d="M25.427,32.245h-0.101c-1.317,0-2.385,1.075-2.385,2.385v10.384c0,1.31,1.067,2.385,2.385,2.385h0.101
	c1.317,0,2.385-1.075,2.385-2.385V34.63C27.812,33.32,26.736,32.245,25.427,32.245L25.427,32.245z M28.954,49.817
	c0,1.209,0.984,2.185,2.193,2.185h2.344v5.613c0,1.317,1.067,2.385,2.385,2.385h0.101c1.317,0,2.385-1.076,2.385-2.385v-5.613h3.277
	v5.613c0,1.317,1.076,2.385,2.385,2.385h0.101c1.317,0,2.385-1.076,2.385-2.385v-5.613h2.344c1.201,0,2.193-0.976,2.193-2.185V33.43
	H28.954V49.817z M45.5,23.487l1.859-2.876c0.117-0.176,0.067-0.425-0.116-0.542c-0.184-0.127-0.426-0.074-0.542,0.117l-1.936,2.968
	c-1.442-0.592-3.061-0.924-4.762-0.924c-1.709,0-3.327,0.332-4.77,0.924l-1.927-2.968c-0.117-0.191-0.367-0.244-0.551-0.117
	c-0.184,0.117-0.233,0.366-0.116,0.542l1.859,2.876c-3.353,1.644-5.621,4.746-5.621,8.299c0,0.218,0.017,0.433,0.033,0.65h22.176
	c0.017-0.218,0.033-0.433,0.033-0.65C51.121,28.233,48.853,25.131,45.5,23.487L45.5,23.487z M34.858,28.626
	c-0.592,0-1.067-0.476-1.067-1.067c0-0.594,0.476-1.059,1.067-1.059c0.593,0,1.067,0.465,1.067,1.059
	C35.926,28.15,35.451,28.626,34.858,28.626L34.858,28.626z M45.142,28.626c-0.593,0-1.067-0.476-1.067-1.067
	c0-0.594,0.475-1.059,1.067-1.059c0.592,0,1.067,0.465,1.067,1.059C46.209,28.15,45.733,28.626,45.142,28.626L45.142,28.626z
	 M54.674,33.045h-0.101c-1.317,0-2.385,1.076-2.385,2.386v10.384c0,1.31,1.075,2.385,2.385,2.385h0.101
	c1.317,0,2.385-1.075,2.385-2.385V35.431C57.059,34.121,55.982,33.045,54.674,33.045L54.674,33.045z"/>
</svg>
