<?xml version="1.0" encoding="utf-8"?>
<!-- Generator: Adobe Illustrator 16.0.0, SVG Export Plug-In . SVG Version: 6.00 Build 0)  -->
<!DOCTYPE svg PUBLIC "-//W3C//DTD SVG 1.1//EN" "http://www.w3.org/Graphics/SVG/1.1/DTD/svg11.dtd">
<svg version="1.1" id="Ebene_1" xmlns="http://www.w3.org/2000/svg" xmlns:xlink="http://www.w3.org/1999/xlink" x="0px" y="0px"
	 width="80px" height="80px" viewBox="0 0 80 80" enable-background="new 0 0 80 80" xml:space="preserve">
<rect y="0.003" opacity="0.5" fill="#F2F2F2" width="80" height="79.994"/>
<path fill="#F2F2F2" d="M25.342,34.704c-3.381,5.868-1.23,14.773,2.508,20.173c1.867,2.7,3.756,5.123,6.346,5.123
	c0.049,0,0.098-0.001,0.146-0.003c1.217-0.048,2.096-0.423,2.945-0.785c0.953-0.406,1.941-0.827,3.488-0.827
	c1.473,0,2.412,0.407,3.32,0.8c0.895,0.388,1.818,0.789,3.182,0.763c2.914-0.054,4.705-2.669,6.285-4.976
	c1.648-2.409,2.475-4.747,2.752-5.641l0.012-0.036c0.055-0.159-0.021-0.332-0.174-0.402c-0.004-0.001-0.02-0.008-0.023-0.009
	c-0.514-0.21-5.018-2.208-5.064-7.654c-0.045-4.424,3.379-6.767,4.064-7.192l0.033-0.02c0.074-0.048,0.125-0.124,0.143-0.21
	s0-0.177-0.051-0.25c-2.361-3.458-5.982-3.978-7.441-4.041c-0.211-0.021-0.43-0.032-0.648-0.032c-1.713,0-3.354,0.647-4.67,1.166
	c-0.91,0.359-1.695,0.669-2.238,0.669c-0.609,0-1.398-0.313-2.314-0.676c-1.223-0.486-2.609-1.036-4.078-1.036
	c-0.035,0-0.068,0-0.104,0.001C30.346,29.658,27.121,31.611,25.342,34.704L25.342,34.704z M47.816,20
	c-2.068,0.084-4.547,1.357-6.029,3.093c-1.26,1.459-2.49,3.892-2.166,6.345c0.02,0.154,0.145,0.272,0.299,0.284
	c0.141,0.011,0.283,0.017,0.424,0.017c2.021,0,4.203-1.118,5.691-2.918c1.566-1.901,2.359-4.342,2.119-6.527
	C48.137,20.121,47.986,19.994,47.816,20L47.816,20z"/>
</svg>
