<?xml version="1.0" encoding="utf-8"?>
<!-- Generator: Adobe Illustrator 16.0.0, SVG Export Plug-In . SVG Version: 6.00 Build 0)  -->
<!DOCTYPE svg PUBLIC "-//W3C//DTD SVG 1.1//EN" "http://www.w3.org/Graphics/SVG/1.1/DTD/svg11.dtd">
<svg version="1.1" id="Ebene_1" xmlns="http://www.w3.org/2000/svg" xmlns:xlink="http://www.w3.org/1999/xlink" x="0px" y="0px"
	 width="80px" height="80px" viewBox="0 0 80 80" enable-background="new 0 0 80 80" xml:space="preserve">
<rect y="0.003" opacity="0.5" fill="#F2F2F2" enable-background="new    " width="80" height="79.994"/>
<path fill="#FFFFFF" d="M54.139,25.858c-7.808-7.808-20.473-7.808-28.283,0c-7.808,7.806-7.808,20.472,0,28.281
	c7.813,7.813,20.479,7.809,28.283,0C61.954,46.336,61.954,33.664,54.139,25.858z M39.676,23.459c2.113,0,3.831,1.717,3.831,3.83
	c0,2.134-1.718,3.866-3.831,3.866c-2.133,0-3.867-1.732-3.867-3.866C35.809,25.14,37.507,23.459,39.676,23.459z M45.835,51.624
	c0,0.806-0.396,1.198-1.196,1.198h-9.882c-0.806,0-1.195-0.393-1.195-1.198v-2.519c0-0.805,0.39-1.193,1.195-1.193h1.827V37.279
	h-1.866c-0.802,0-1.195-0.387-1.195-1.193v-2.517c0-0.808,0.394-1.197,1.195-1.197h6.898c0.805,0,1.194,0.39,1.194,1.197v14.343
	h1.828c0.801,0,1.195,0.391,1.195,1.193L45.835,51.624L45.835,51.624z"/>
</svg>
