<?xml version="1.0" encoding="utf-8"?>
<!-- Generator: Adobe Illustrator 16.0.0, SVG Export Plug-In . SVG Version: 6.00 Build 0)  -->
<!DOCTYPE svg PUBLIC "-//W3C//DTD SVG 1.1//EN" "http://www.w3.org/Graphics/SVG/1.1/DTD/svg11.dtd">
<svg version="1.1" id="Ebene_1" xmlns="http://www.w3.org/2000/svg" xmlns:xlink="http://www.w3.org/1999/xlink" x="0px" y="0px"
	 width="376px" height="48px" viewBox="0 0 376 48" enable-background="new 0 0 376 48" xml:space="preserve">
<path d="M1.099,38.568c0,1.076,0.977,1.949,2.181,1.949h34.099c1.202,0,2.183-0.873,2.183-1.949v-14.33H1.099V38.568z M35.366,6.167
	H22.873v-2.28h-1.382V2.444h-0.005c0-0.017,0.005-0.034,0.005-0.05V2.342c-0.01-0.556-0.395-1.018-0.916-1.134V0.252h-0.509v0.953
	c-0.528,0.113-0.928,0.581-0.933,1.146V2.38c0.002,0.021,0.005,0.043,0.007,0.065H19.14v1.442h-0.004v0.009h-1.342v2.271H5.198
	l-4.1,5.786v10.494h38.46v-10.54L35.366,6.167z M57.961,38.921c-0.165,0.47-0.305,0.634-1.545,1.076l-0.388,0.138
	c-0.083,0.055-0.083,0.139-0.083,0.221c0,0.084,0.028,0.193,0.083,0.193c0.91-0.082,1.737-0.109,2.454-0.109
	c1.051,0,2.042,0,3.146,0.109c0.056,0,0.056-0.109,0.056-0.193c0-0.082,0-0.166-0.056-0.221l-0.441-0.138
	c-1.569-0.497-1.682-0.579-1.682-0.938c0.055-0.523,0.717-3.006,1.213-4.469c0.966-0.055,1.959-0.055,2.925-0.055
	c0.992,0,2.04,0,3.033,0.055c0.331,1.021,0.8,2.76,1.131,3.999c0.055,0.222,0.083,0.442,0.083,0.524c0,0.33-0.193,0.44-1.572,0.883
	l-0.439,0.138c-0.057,0.056-0.057,0.14-0.057,0.222s0,0.192,0.057,0.192c1.104-0.082,2.097-0.11,3.172-0.11
	c1.049,0,2.124,0.028,3.228,0.11c0.027,0,0.057-0.11,0.057-0.192s0-0.166-0.057-0.222l-1.297-0.468
	c-0.413-0.166-0.496-0.387-0.717-1.048c-1.766-5.517-3.421-10.729-5.186-16.495c-0.027-0.083-0.083-0.138-0.165-0.138H63.78
	c-0.055,0-0.082,0.028-0.108,0.11C61.878,27.529,59.533,34.371,57.961,38.921 M66.429,33.404H61.05l2.729-8.412h0.111L66.429,33.404
	z M84.356,39.17C84.3,38.232,84.3,36.714,84.3,35.115v-2.482c0-3.971,0-7.917,0.139-12.688c0-0.137-0.055-0.275-0.191-0.275
	c-1.104,0.165-3.282,0.249-3.834,0.249c-0.058,0-0.082,0.11-0.082,0.193c0,0.083,0,0.138,0.082,0.193l1.187,0.386
	c0.523,0.165,0.578,0.193,0.606,0.634c0.056,0.91,0.108,4.165,0.108,5.985c-0.827-0.578-1.6-0.91-2.786-0.91
	c-4.164,0-5.709,3.642-5.709,7.916c0,3.31,1.519,6.455,4.605,6.455c1.904,0,3.09-0.994,3.862-2.373h0.108
	c0,0.718,0,1.104-0.055,1.877c0,0.191,0.082,0.248,0.165,0.248c0.521-0.084,0.966-0.084,1.406-0.084
	c0.634,0,1.601,0.056,2.207,0.109c0.055,0,0.083-0.109,0.083-0.191s-0.028-0.193-0.083-0.222l-0.91-0.332
	C84.495,39.557,84.385,39.5,84.356,39.17 M82.426,33.516c0,3.696-0.8,6.232-3.254,6.232c-2.373,0-3.09-2.896-3.09-6.426
	c0-3.146,0.883-6.123,3.42-6.123C82.122,27.199,82.426,28.964,82.426,33.516 M99.03,33.074c0-3.944-1.901-6.674-5.434-6.674
	c-3.808,0-5.654,3.365-5.654,7.61c0,4.14,2.016,6.979,5.571,6.979C97.595,40.99,99.03,36.908,99.03,33.074 M90.231,33.543
	c0-3.365,0.855-6.289,3.255-6.289c2.813,0,3.254,3.807,3.254,6.428c0,2.592-0.385,6.398-3.005,6.398
	C91.225,40.08,90.231,37.486,90.231,33.543 M105.043,39.363c-0.028-0.551-0.083-3.256-0.083-5.682v-0.277
	c0-6.701,0.083-12.3,0.138-13.459c0-0.137,0-0.275-0.165-0.275c-1.104,0.165-2.646,0.249-3.944,0.249
	c-0.025,0-0.056,0.11-0.056,0.193c0,0.055,0,0.138,0.056,0.193l0.772,0.248c0.965,0.303,1.021,0.331,1.048,0.772
	c0.056,0.91,0.083,5.407,0.083,12.081v0.275c0,2.428-0.027,5.131-0.083,5.682c-0.025,0.166-0.083,0.222-1.406,0.662l-0.497,0.166
	c-0.055,0.026-0.055,0.108-0.055,0.191c0,0.057,0,0.165,0.055,0.165c0.993-0.082,1.768-0.108,2.813-0.108
	c1.021,0,2.206,0.026,3.172,0.108c0.027,0,0.056-0.108,0.056-0.165c0-0.083,0-0.165-0.056-0.191l-0.522-0.166
	C105.098,39.639,105.07,39.557,105.043,39.363 M111.994,45.596c-0.058-0.522-0.084-2.537-0.084-3.723v-1.848h0.108
	c0.773,0.496,1.851,0.744,2.842,0.744c3.916,0,5.518-3.531,5.518-7.89c0-3.032-0.578-6.479-4.633-6.479
	c-1.738,0-2.896,0.826-3.835,2.013h-0.14l0.058-1.407c0-0.138-0.028-0.275-0.193-0.275c-1.131,0.166-2.345,0.248-3.613,0.248
	c-0.056,0-0.083,0.11-0.083,0.193c0,0.055,0,0.139,0.083,0.193l0.827,0.248c0.91,0.248,0.938,0.277,0.966,0.662
	c0.058,0.91,0.082,2.951,0.082,5.131v0.275c0,2.428-0.055,11.391-0.082,11.916c-0.026,0.166-0.056,0.221-1.405,0.688l-0.471,0.165
	c-0.055,0.027-0.055,0.109-0.055,0.191c0,0.058,0,0.166,0.055,0.166c0.966-0.082,1.876-0.108,2.924-0.108
	c0.993,0,2.068,0.026,3.034,0.108c0.058,0,0.058-0.108,0.058-0.166c0-0.082,0-0.164-0.058-0.191l-0.496-0.165
	C112.076,45.844,112.021,45.789,111.994,45.596 M111.855,32.577c0-3.585,1.323-5.13,3.447-5.13c2.289,0,2.869,2.703,2.869,6.397
	c0,4.192-1.214,6.041-3.586,6.041c-0.992,0-2.041-0.413-2.565-1.131C111.884,37.708,111.855,34.453,111.855,32.577 M126.363,19.944
	c0-0.137-0.026-0.275-0.165-0.275c-1.132,0.165-2.594,0.249-3.835,0.249c-0.055,0-0.082,0.11-0.082,0.193
	c0,0.055,0,0.138,0.082,0.193l0.773,0.248c0.965,0.303,0.992,0.331,1.048,0.772c0.058,0.91,0.082,5.379,0.082,12.357
	c0,2.426,0,5.131-0.055,5.682c-0.027,0.164-0.083,0.221-1.407,0.662l-0.496,0.164c-0.056,0.027-0.056,0.109-0.056,0.192
	c0,0.056,0,0.165,0.056,0.165c0.993-0.082,1.793-0.109,2.842-0.109c1.021,0,2.15,0.027,3.116,0.109c0.056,0,0.056-0.109,0.056-0.165
	c0-0.083,0-0.166-0.056-0.192l-0.522-0.164c-1.298-0.388-1.381-0.469-1.407-0.662c-0.026-0.551-0.057-2.594-0.057-3.778v-5.076
	c0.389-1.627,1.572-2.868,3.34-2.868c2.262,0,2.427,1.379,2.427,3.53v2.511c0,3.364-0.027,5.047-0.082,5.683
	c-0.028,0.163-0.056,0.192-1.406,0.661l-0.47,0.164c-0.055,0.028-0.055,0.11-0.055,0.193c0,0.055,0,0.165,0.055,0.165
	c0.966-0.082,1.876-0.11,2.924-0.11c0.993,0,2.014,0.028,2.979,0.11c0.025,0,0.056-0.11,0.056-0.165c0-0.083,0-0.166-0.056-0.193
	l-0.496-0.164c-1.323-0.44-1.354-0.469-1.382-0.661c-0.025-0.552-0.025-3.091-0.025-4.166V34.62c0-2.263,0.056-3.642,0.056-4.993
	c0-2.427-1.793-3.229-3.559-3.229c-1.932,0-3.282,0.884-4.248,2.207h-0.082C126.253,26.316,126.28,21.296,126.363,19.944
	 M143.988,34.232c0.109,0,0.109-0.056,0.109-0.193v-1.352c0-0.11,0-0.166-0.109-0.166h-5.734c-0.084,0-0.111,0.056-0.111,0.192
	v1.353c0,0.11,0.027,0.166,0.111,0.166H143.988z M153.283,29.902c1.653-1.82,5.13-5.544,5.791-6.151
	c0.495-0.469,1.05-0.8,1.601-0.938l0.386-0.11c0.057-0.028,0.057-0.083,0.057-0.221c0-0.11,0-0.193-0.057-0.193
	c-0.578,0.083-1.848,0.11-2.646,0.11c-0.689,0-1.932-0.027-2.678-0.11c-0.024,0-0.055,0.11-0.055,0.166c0,0.083,0,0.22,0.055,0.248
	l0.389,0.11c0.993,0.303,1.269,0.414,1.269,0.662c0,0.414-3.172,4.138-6.261,7.282v0.193c1.352,1.517,5.819,7.42,6.261,8.44
	c0,0.192-0.19,0.303-1.021,0.551l-0.637,0.192c-0.055,0.056-0.055,0.14-0.055,0.222c0,0.139,0,0.192,0.055,0.192
	c1.134-0.082,2.208-0.108,3.092-0.108c0.854,0,2.014,0.026,3.062,0.108c0.055,0,0.083-0.055,0.083-0.192
	c0-0.082,0-0.166-0.083-0.222l-0.496-0.166c-0.663-0.221-0.8-0.386-1.215-0.883C159.104,37.708,154.938,32.164,153.283,29.902
	 M149.753,22.399c-0.828,0-2.207-0.027-3.338-0.11c-0.027,0-0.057,0.055-0.057,0.193c0,0.083,0,0.166,0.057,0.221l0.635,0.193
	c1.489,0.469,1.517,0.524,1.545,0.745c0.082,2.399,0.082,5.434,0.082,7.062v0.275c0,1.6,0,5.818-0.082,8.19
	c-0.028,0.248-0.083,0.274-1.573,0.771l-0.579,0.193c-0.055,0.055-0.055,0.139-0.055,0.221c0,0.14,0.027,0.193,0.055,0.193
	c1.134-0.082,2.455-0.109,3.313-0.109c0.8,0,2.179,0.027,3.254,0.109c0.028,0,0.056-0.055,0.056-0.193c0-0.082,0-0.166-0.056-0.221
	l-0.607-0.193c-1.486-0.469-1.6-0.522-1.6-0.771c-0.055-2.372-0.055-6.593-0.055-8.19v-0.275c0-1.628,0-4.771,0.055-7.062
	c0.028-0.221,0.111-0.276,1.6-0.745l0.607-0.193c0.056-0.055,0.056-0.11,0.056-0.193c0-0.11,0-0.221-0.056-0.221
	C151.903,22.372,150.58,22.399,149.753,22.399 M173.39,33.074c0-3.944-1.901-6.674-5.432-6.674c-3.81,0-5.655,3.365-5.655,7.61
	c0,4.14,2.014,6.979,5.571,6.979C171.956,40.99,173.39,36.908,173.39,33.074 M164.592,33.543c0-3.365,0.854-6.289,3.254-6.289
	c2.813,0,3.256,3.807,3.256,6.428c0,2.592-0.387,6.398-3.007,6.398C165.585,40.08,164.592,37.486,164.592,33.543 M179.403,39.363
	c-0.026-0.551-0.083-3.256-0.083-5.682v-0.277c0-6.701,0.083-12.3,0.141-13.459c0-0.137,0-0.275-0.166-0.275
	c-1.104,0.165-2.647,0.249-3.944,0.249c-0.027,0-0.055,0.11-0.055,0.193c0,0.055,0,0.138,0.055,0.193l0.772,0.248
	c0.966,0.303,1.021,0.331,1.049,0.772c0.055,0.91,0.082,5.407,0.082,12.081v0.275c0,2.428-0.027,5.131-0.082,5.682
	c-0.028,0.166-0.083,0.222-1.407,0.662l-0.496,0.166c-0.056,0.026-0.056,0.108-0.056,0.191c0,0.057,0,0.165,0.056,0.165
	c0.992-0.082,1.767-0.108,2.813-0.108c1.021,0,2.207,0.026,3.173,0.108c0.028,0,0.055-0.108,0.055-0.165
	c0-0.083,0-0.165-0.055-0.191l-0.524-0.166C179.459,39.639,179.431,39.557,179.403,39.363 M186.354,45.596
	c-0.056-0.522-0.083-2.537-0.083-3.723v-1.848h0.11c0.771,0.496,1.848,0.744,2.841,0.744c3.916,0,5.517-3.531,5.517-7.89
	c0-3.032-0.578-6.479-4.634-6.479c-1.736,0-2.896,0.826-3.834,2.013h-0.139l0.055-1.407c0-0.138-0.024-0.275-0.19-0.275
	c-1.133,0.166-2.346,0.248-3.613,0.248c-0.055,0-0.083,0.11-0.083,0.193c0,0.055,0,0.139,0.083,0.193l0.828,0.248
	c0.909,0.248,0.938,0.277,0.965,0.662c0.056,0.91,0.083,2.951,0.083,5.131v0.275c0,2.428-0.055,11.391-0.083,11.916
	c-0.027,0.166-0.056,0.221-1.406,0.688l-0.47,0.165c-0.056,0.027-0.056,0.109-0.056,0.191c0,0.058,0,0.166,0.056,0.166
	c0.965-0.082,1.876-0.108,2.924-0.108c0.994,0,2.069,0.026,3.035,0.108c0.054,0,0.054-0.108,0.054-0.166
	c0-0.082,0-0.164-0.054-0.191l-0.498-0.165C186.437,45.844,186.382,45.789,186.354,45.596 M186.217,32.577
	c0-3.585,1.323-5.13,3.447-5.13c2.289,0,2.867,2.703,2.867,6.397c0,4.192-1.215,6.041-3.587,6.041c-0.991,0-2.042-0.413-2.563-1.131
	C186.243,37.708,186.217,34.453,186.217,32.577 M200.724,39.363c-0.027-0.551-0.027-3.256-0.027-5.682v-0.277
	c0-2.205,0.027-5.239,0.11-6.397c0-0.138-0.027-0.274-0.193-0.274c-1.073,0.164-2.563,0.248-3.834,0.248
	c-0.056,0-0.08,0.109-0.08,0.192c0,0.056,0,0.138,0.08,0.193l0.802,0.249c0.965,0.303,0.992,0.33,1.021,0.771
	c0.058,0.91,0.083,2.843,0.083,5.021v0.276c0,2.426-0.025,5.131-0.055,5.682c0,0.164-0.14,0.221-1.463,0.662l-0.496,0.164
	c-0.055,0.028-0.055,0.11-0.055,0.192c0,0.056,0,0.165,0.055,0.165c0.994-0.081,1.82-0.109,2.869-0.109
	c1.021,0,2.066,0.028,3.031,0.109c0.028,0,0.058-0.109,0.058-0.165c0-0.082,0-0.166-0.058-0.192l-0.521-0.164
	C200.862,39.639,200.751,39.557,200.724,39.363 M199.648,20.689c-0.911,0-1.405,0.717-1.405,1.517c0,0.855,0.494,1.6,1.405,1.6
	c0.91,0,1.437-0.744,1.437-1.6C201.083,21.406,200.559,20.689,199.648,20.689 M207.978,39.363c-0.055-0.551-0.055-2.594-0.055-3.778
	v-5.076c0.386-1.627,1.571-2.868,3.336-2.868c2.262,0,2.429,1.379,2.429,3.53v2.511c0,3.364-0.025,5.047-0.083,5.683
	c-0.026,0.163-0.055,0.192-1.404,0.661l-0.471,0.164c-0.056,0.028-0.056,0.11-0.056,0.193c0,0.055,0,0.165,0.056,0.165
	c0.965-0.082,1.875-0.11,2.924-0.11c0.992,0,2.015,0.028,2.979,0.11c0.028,0,0.056-0.11,0.056-0.165c0-0.083,0-0.166-0.056-0.193
	l-0.495-0.164c-1.353-0.44-1.353-0.469-1.38-0.661c-0.028-0.552-0.028-3.091-0.028-4.166V34.62c0-2.263,0.058-3.642,0.058-4.993
	c0-2.427-1.792-3.229-3.56-3.229c-1.932,0-3.282,0.884-4.303,2.316h-0.083l0.055-1.71c0-0.138-0.025-0.274-0.221-0.274
	c-1.104,0.164-2.427,0.248-3.668,0.248c-0.056,0-0.082,0.109-0.082,0.192c0,0.056,0,0.138,0.082,0.192l0.827,0.25
	c0.911,0.274,0.938,0.303,0.993,0.662c0.056,0.91,0.083,2.951,0.083,5.129v0.277c0,2.426,0,5.131-0.058,5.682
	c-0.025,0.164-0.082,0.221-1.406,0.662l-0.495,0.164c-0.057,0.028-0.057,0.109-0.057,0.192c0,0.056,0,0.165,0.057,0.165
	c0.992-0.082,1.794-0.109,2.842-0.109c1.02,0,2.149,0.027,3.117,0.109c0.055,0,0.055-0.109,0.055-0.165c0-0.083,0-0.166-0.055-0.192
	l-0.524-0.164C208.089,39.639,208.006,39.557,207.978,39.363 M230.236,26.73l-3.062,0.248c-0.801-0.414-1.931-0.58-2.647-0.58
	c-2.979,0-4.908,2.014-4.908,5.047c0,1.986,0.771,3.504,2.231,4.221c-1.048,1.048-1.82,2.29-1.82,3.229
	c0,0.799,0.662,1.131,1.959,1.295v0.058c-1.901,1.461-2.896,2.841-2.896,4.495c0,2.234,1.986,3.008,3.944,3.008
	c2.813,0,7.393-1.737,7.393-5.875c0-2.398-1.766-2.813-3.807-2.951l-2.979-0.191c-1.021-0.058-1.9-0.166-1.9-1.104
	c0-0.497,0.303-1.269,0.66-1.819c0.414,0.138,1.271,0.248,1.737,0.248c2.841,0,4.938-1.656,4.938-5.076
	c0-0.991-0.306-2.262-0.938-3.032l2.18-0.662L230.236,26.73z M220.803,44.134c0-1.599,0.91-3.172,2.015-3.807l2.234,0.192
	c2.123,0.192,3.392,0.498,3.392,2.346c0,2.593-2.124,3.832-4.604,3.832C222.237,46.699,220.803,46.092,220.803,44.134
	 M226.981,31.17c0,2.346-0.771,4.109-2.676,4.109c-1.82,0-2.593-1.767-2.593-4c0-2.454,0.745-4.082,2.729-4.082
	C226.54,27.199,226.981,28.881,226.981,31.17 M238.482,34.232c0.111,0,0.111-0.056,0.111-0.193v-1.352c0-0.11,0-0.166-0.111-0.166
	h-5.734c-0.083,0-0.11,0.056-0.11,0.192v1.353c0,0.11,0.027,0.166,0.11,0.166H238.482z M244.248,40.438
	c1.13,0,2.066,0.193,3.362,0.193c3.643,0,5.768-1.931,5.768-5.131c0-3.393-2.621-4.303-4.91-4.496v-0.082
	c2.179-0.275,4.303-1.545,4.303-4.413c0-3.476-2.455-4.304-4.938-4.304c-1.354,0-2.813,0.193-3.696,0.193
	c-0.854,0-2.096-0.027-3.227-0.11c-0.028,0-0.057,0.055-0.057,0.193c0,0.083,0,0.166,0.057,0.221l0.634,0.193
	c1.49,0.469,1.518,0.524,1.546,0.745c0.082,2.399,0.082,5.434,0.082,7.062v0.274c0,1.601,0,5.819-0.082,8.191
	c-0.028,0.248-0.084,0.273-1.573,0.771l-0.579,0.192c-0.056,0.056-0.056,0.14-0.056,0.222c0,0.139,0.028,0.192,0.056,0.192
	C242.069,40.466,243.393,40.438,244.248,40.438 M245.24,31.502h0.967c2.646,0,4.854,0.605,4.854,3.889
	c0,3.726-2.096,4.332-4.355,4.332c-0.414,0-0.91-0.029-1.379-0.139c-0.057-0.911-0.083-5.461-0.083-6.4L245.24,31.502L245.24,31.502
	z M245.24,28.221c0-1.297,0.027-3.67,0.082-4.994c0.636-0.083,0.91-0.11,1.685-0.11c1.931,0,3.42,0.772,3.42,3.613
	c0,3.254-2.179,3.834-4.082,3.834h-1.104V28.221L245.24,28.221z M265.513,38.646c-0.055,0-0.11,0.025-0.221,0.108
	c-0.772,0.579-1.602,0.854-2.594,0.854c-3.09,0-4.412-2.648-4.412-5.985c0-0.274,0-0.44,0.025-0.744h7.034
	c0.523,0,0.744-0.249,0.744-0.992c0-2.565-0.744-5.487-4.303-5.487c-4.109,0-5.685,3.832-5.685,7.474
	c0,4.192,1.82,7.116,5.406,7.116c1.877,0,3.145-0.744,4.165-1.766c0.083-0.084,0.111-0.14,0.111-0.192
	C265.789,38.895,265.596,38.646,265.513,38.646 M263.857,31.584c0,0.221-0.055,0.275-0.439,0.305l-5.048,0.192
	c0.14-2.593,1.049-4.882,3.09-4.882c2.232,0,2.397,2.15,2.397,4.191V31.584L263.857,31.584z M271.829,32.55
	c0-2.179,1.214-4.274,2.785-4.274c0.661,0,0.909,0.139,1.156,0.496h0.223l0.139-2.123c0-0.166-0.221-0.248-0.8-0.248
	c-1.462,0-2.62,1.352-3.503,3.145h-0.084l0.056-2.538c0-0.138-0.026-0.274-0.22-0.274c-1.104,0.166-2.4,0.248-3.644,0.248
	c-0.055,0-0.083,0.109-0.083,0.192c0,0.056,0,0.14,0.083,0.193l0.828,0.248c0.91,0.276,0.938,0.304,0.992,0.661
	c0.056,0.91,0.084,2.951,0.084,5.132v0.274c0,2.428,0,5.131-0.056,5.683c-0.028,0.166-0.083,0.222-1.406,0.661l-0.497,0.166
	c-0.055,0.027-0.055,0.109-0.055,0.192c0,0.056,0,0.165,0.055,0.165c0.992-0.082,1.766-0.109,2.813-0.109
	c1.021,0,2.067,0.027,3.033,0.109c0.027,0,0.057-0.109,0.057-0.165c0-0.083,0-0.165-0.057-0.192l-0.522-0.166
	c-1.271-0.385-1.296-0.469-1.323-0.661c-0.027-0.552-0.056-2.593-0.056-3.777L271.829,32.55L271.829,32.55z M286.999,40.163
	c0,0.249,0.056,0.358,0.138,0.358c0.331-0.057,0.883-0.084,1.324-0.084c0.744,0,1.627,0.056,2.315,0.109
	c0.057,0,0.082-0.055,0.082-0.191c0-0.082-0.025-0.193-0.082-0.223l-1.074-0.357c-0.606-0.192-0.662-0.357-0.689-0.662
	c-0.028-0.965-0.055-2.399-0.055-4V33.68c0-2.427,0.082-5.406,0.22-6.675c0-0.165-0.027-0.274-0.165-0.274
	c-1.104,0.164-2.537,0.248-4.027,0.248c-0.055,0-0.083,0.056-0.083,0.192c0,0.083,0.028,0.166,0.083,0.192l1.021,0.305
	c0.745,0.248,0.883,0.331,0.911,0.579c0.024,0.552,0.024,2.841,0.024,3.917v3.529c0,2.373-1.238,4.026-3.171,4.026
	c-2.372,0-2.538-2.013-2.538-4.137V33.68c0-2.646,0.11-6.067,0.166-6.675c0-0.138-0.026-0.274-0.166-0.274
	c-1.187,0.164-2.538,0.248-4.025,0.248c-0.057,0-0.082,0.056-0.082,0.192c0,0.083,0.025,0.166,0.082,0.192l1.048,0.277
	c0.828,0.219,0.854,0.303,0.883,0.604c0.028,0.552,0.056,2.841,0.056,3.917v0.579c0,2.37-0.056,3.776-0.056,4.633
	c0,3.035,2.069,3.586,3.641,3.586c1.656,0,3.2-0.771,4.165-2.537h0.058v1.739L286.999,40.163L286.999,40.163z M296.542,39.363
	c-0.058-0.551-0.083-1.711-0.083-5.82v-5.627h2.288c0.083,0,0.11-0.055,0.11-0.193v-0.58c0-0.108-0.027-0.164-0.11-0.164h-2.288
	V24.91c0-3.199,0.663-4.578,2.429-4.578c0.385,0,0.468,0.11,1.13,2.206l0.138,0.441c0.027,0.083,0.058,0.138,0.111,0.138h0.19
	c0.082,0,0.11-0.055,0.11-0.11l0.248-3.034c0-0.11,0-0.138-0.056-0.165c-0.524-0.11-1.213-0.166-1.819-0.166
	c-1.736,0-4.635,0.993-4.635,4.331c0,1.378,0.056,1.958,0.056,3.005h-2.041c-0.056,0-0.083,0.057-0.083,0.166v0.58
	c0,0.137,0.027,0.192,0.083,0.192h2.041v5.627c0,4.108-0.025,5.213-0.056,5.819c-0.055,0.166-0.082,0.222-1.406,0.662l-0.496,0.166
	c-0.083,0.026-0.083,0.108-0.083,0.191c0,0.057,0,0.165,0.083,0.165c0.993-0.082,1.793-0.108,2.842-0.108
	c1.021,0,2.262,0.026,3.228,0.108c0.056,0,0.056-0.108,0.056-0.165c0-0.083,0-0.166-0.056-0.191l-0.523-0.166
	C296.681,39.639,296.57,39.557,296.542,39.363 M303.354,40.99c3.56,0,5.049-2.041,5.049-4.247c0-2.179-1.297-3.035-3.172-4.083
	c-1.462-0.855-2.593-1.6-2.593-3.117c0-1.71,1.297-2.29,2.563-2.29c0.911,0,1.271,0.138,1.462,0.47
	c0.223,0.385,0.662,1.654,0.855,2.398l0.083,0.303c0.027,0.057,0.082,0.057,0.248,0.057c0.138,0,0.192-0.027,0.192-0.084
	c0-0.744,0.082-2.262,0.139-3.393c0-0.109,0-0.138-0.057-0.165c-0.801-0.192-1.849-0.358-2.813-0.358
	c-3.034,0-4.524,1.819-4.524,3.75c0,2.069,1.216,3.035,2.731,3.891c1.765,0.993,3.089,1.792,3.089,3.529
	c0,1.82-1.545,2.481-2.979,2.481c-1.188,0-1.49-0.11-1.794-0.772c-0.192-0.469-0.553-1.627-0.688-2.233l-0.082-0.356
	c-0.029-0.057-0.084-0.057-0.222-0.057c-0.111,0-0.223,0.028-0.223,0.083c0,0.47-0.138,2.595-0.248,3.668
	c0,0.109,0.057,0.14,0.11,0.166C301.314,40.88,302.308,40.99,303.354,40.99 M314.329,39.363c-0.054-0.551-0.082-3.256-0.082-5.682
	v-0.69c2.069,2.454,4.855,6.069,4.855,6.372c0,0.275-0.056,0.304-1.021,0.688l-0.358,0.138c-0.056,0.028-0.082,0.109-0.082,0.192
	c0,0.056,0.026,0.165,0.082,0.165c1.131-0.109,1.793-0.109,2.786-0.109c0.992,0,1.6,0,2.592,0.109c0.056,0,0.084-0.109,0.084-0.165
	c0-0.083,0-0.166-0.084-0.192l-0.275-0.109c-0.469-0.193-0.938-0.441-1.213-0.717c-0.439-0.469-3.528-4.606-5.463-7.062
	c1.573-1.353,2.98-2.647,4.524-4c0.522-0.47,0.993-0.688,1.545-0.909l0.415-0.166c0.054-0.027,0.081-0.11,0.081-0.193
	c0-0.055-0.027-0.166-0.081-0.166c-0.607,0.083-1.49,0.109-2.318,0.109c-0.718,0-1.792-0.056-2.537-0.109
	c-0.056,0-0.083,0.109-0.083,0.166c0,0.083,0,0.166,0.083,0.193l0.275,0.082c0.911,0.274,1.131,0.414,1.131,0.688
	c0,0.331-1.793,2.067-4.938,4.771v-0.221c0-6.703,0.057-11.447,0.109-12.605c0-0.137,0-0.275-0.138-0.275
	c-1.159,0.165-2.538,0.249-3.835,0.249c-0.057,0-0.083,0.11-0.083,0.193c0,0.055,0,0.138,0.083,0.193l0.771,0.248
	c0.966,0.303,1.021,0.331,1.048,0.772c0.058,0.91,0.084,5.406,0.084,12.08v0.276c0,2.427-0.026,5.132-0.084,5.683
	c-0.025,0.164-0.082,0.221-1.404,0.662l-0.497,0.164c-0.056,0.028-0.056,0.109-0.056,0.192c0,0.056,0,0.165,0.056,0.165
	c0.993-0.082,1.766-0.109,2.813-0.109c1.021,0,1.933,0.027,2.896,0.109c0.028,0,0.057-0.109,0.057-0.165
	c0-0.083,0-0.166-0.057-0.192l-0.495-0.164C314.413,39.639,314.36,39.557,314.329,39.363 M334.937,33.074
	c0-3.944-1.903-6.674-5.434-6.674c-3.81,0-5.654,3.365-5.654,7.61c0,4.14,2.014,6.979,5.571,6.979
	C333.502,40.99,334.937,36.908,334.937,33.074 M326.138,33.543c0-3.365,0.854-6.289,3.254-6.289c2.813,0,3.255,3.807,3.255,6.428
	c0,2.592-0.386,6.398-3.006,6.398C327.13,40.08,326.138,37.486,326.138,33.543 M340.948,39.363
	c-0.026-0.551-0.083-3.256-0.083-5.682v-0.277c0-6.701,0.083-12.3,0.14-13.459c0-0.137,0-0.275-0.165-0.275
	c-1.104,0.165-2.647,0.249-3.944,0.249c-0.027,0-0.056,0.11-0.056,0.193c0,0.055,0,0.138,0.056,0.193l0.771,0.248
	c0.967,0.303,1.021,0.331,1.049,0.772c0.056,0.91,0.083,5.407,0.083,12.081v0.275c0,2.428-0.027,5.131-0.083,5.682
	c-0.027,0.166-0.082,0.222-1.406,0.662l-0.496,0.166c-0.056,0.026-0.056,0.108-0.056,0.191c0,0.057,0,0.165,0.056,0.165
	c0.992-0.082,1.765-0.108,2.813-0.108c1.021,0,2.207,0.026,3.174,0.108c0.025,0,0.056-0.108,0.056-0.165
	c0-0.083,0-0.165-0.056-0.191l-0.523-0.166C341.004,39.639,340.977,39.557,340.948,39.363 M348.229,39.363
	c-0.026-0.551-0.081-3.256-0.081-5.682v-0.277c0-6.701,0.081-12.3,0.137-13.459c0-0.137,0-0.275-0.165-0.275
	c-1.104,0.165-2.646,0.249-3.942,0.249c-0.028,0-0.057,0.11-0.057,0.193c0,0.055,0,0.138,0.057,0.193l0.771,0.248
	c0.965,0.303,1.021,0.331,1.048,0.772c0.057,0.91,0.084,5.407,0.084,12.081v0.275c0,2.428-0.027,5.131-0.084,5.682
	c-0.026,0.166-0.083,0.222-1.405,0.662l-0.495,0.166c-0.058,0.026-0.058,0.108-0.058,0.191c0,0.057,0,0.165,0.058,0.165
	c0.992-0.082,1.765-0.108,2.813-0.108c1.021,0,2.207,0.026,3.172,0.108c0.028,0,0.058-0.108,0.058-0.165
	c0-0.083,0-0.165-0.058-0.191l-0.521-0.166C348.283,39.639,348.258,39.557,348.229,39.363 M361.111,38.646
	c-0.055,0-0.108,0.025-0.221,0.108c-0.772,0.579-1.602,0.854-2.593,0.854c-3.09,0-4.413-2.648-4.413-5.985
	c0-0.274,0-0.44,0.025-0.744h7.033c0.524,0,0.745-0.249,0.745-0.992c0-2.565-0.745-5.487-4.303-5.487
	c-4.11,0-5.685,3.832-5.685,7.474c0,4.192,1.82,7.116,5.407,7.116c1.875,0,3.146-0.744,4.164-1.766
	c0.084-0.084,0.109-0.14,0.109-0.192C361.386,38.895,361.193,38.646,361.111,38.646 M359.454,31.584
	c0,0.221-0.056,0.275-0.439,0.305l-5.047,0.192c0.138-2.593,1.048-4.882,3.089-4.882c2.232,0,2.397,2.15,2.397,4.191V31.584
	L359.454,31.584z M374.709,26.73l-3.063,0.248c-0.8-0.414-1.932-0.58-2.647-0.58c-2.979,0-4.908,2.014-4.908,5.047
	c0,1.986,0.771,3.504,2.232,4.221c-1.049,1.048-1.818,2.29-1.818,3.229c0,0.799,0.66,1.131,1.958,1.295v0.058
	c-1.903,1.461-2.896,2.841-2.896,4.495c0,2.234,1.986,3.008,3.944,3.008c2.813,0,7.392-1.737,7.392-5.875
	c0-2.398-1.765-2.813-3.806-2.951l-2.979-0.191c-1.021-0.058-1.9-0.166-1.9-1.104c0-0.497,0.303-1.269,0.661-1.819
	c0.412,0.138,1.27,0.248,1.736,0.248c2.842,0,4.938-1.656,4.938-5.076c0-0.991-0.307-2.262-0.938-3.032l2.181-0.662L374.709,26.73z
	 M365.275,44.134c0-1.599,0.911-3.172,2.014-3.807l2.234,0.192c2.124,0.192,3.396,0.498,3.396,2.346
	c0,2.593-2.125,3.832-4.607,3.832C366.709,46.699,365.275,46.092,365.275,44.134 M371.452,31.17c0,2.346-0.771,4.109-2.676,4.109
	c-1.819,0-2.592-1.767-2.592-4c0-2.454,0.744-4.082,2.729-4.082C371.013,27.199,371.452,28.881,371.452,31.17"/>
</svg>
