<svg xmlns="http://www.w3.org/2000/svg" width="376" height="48" viewBox="0 0 376 48"><path d="M1.1 38.568c0 1.076.976 1.95 2.18 1.95h34.1c1.2 0 2.182-.874 2.182-1.95v-14.33H1.1v14.33zm34.266-32.4H22.873v-2.28H21.49V2.443h-.004c0-.017.005-.034.005-.05v-.052c-.01-.556-.394-1.018-.915-1.134V.252h-.51v.953c-.527.113-.927.58-.932 1.146v.03l.007.065v1.442h-.004v.01h-1.342v2.27H5.198l-4.1 5.786v10.494h38.46v-10.54l-4.192-5.74zM57.96 38.92c-.164.47-.304.635-1.544 1.077l-.388.138c-.083.055-.083.14-.083.22 0 .085.028.194.083.194.91-.083 1.737-.11 2.454-.11 1.05 0 2.042 0 3.146.11.056 0 .056-.11.056-.194 0-.082 0-.166-.056-.22l-.44-.14c-1.57-.496-1.683-.578-1.683-.937.055-.524.717-3.007 1.213-4.47.966-.055 1.96-.055 2.925-.055.992 0 2.04 0 3.033.055.33 1.02.8 2.76 1.13 4 .056.22.084.44.084.523 0 .33-.193.44-1.572.883l-.44.138c-.056.056-.056.14-.056.222s0 .192.057.192c1.103-.082 2.096-.11 3.17-.11 1.05 0 2.125.028 3.23.11.026 0 .056-.11.056-.192s0-.166-.057-.222l-1.298-.468c-.413-.166-.496-.387-.717-1.048-1.766-5.517-3.42-10.73-5.186-16.495-.028-.083-.084-.138-.166-.138H63.78c-.055 0-.082.028-.108.11-1.794 5.434-4.14 12.276-5.71 16.826m8.467-5.516h-5.38l2.73-8.412h.11l2.54 8.412zm17.926 5.766c-.056-.938-.056-2.456-.056-4.055v-2.482c0-3.97 0-7.917.14-12.688 0-.137-.056-.275-.192-.275-1.104.165-3.282.25-3.834.25-.058 0-.082.11-.082.192 0 .083 0 .138.082.193l1.187.386c.524.166.58.194.607.635.056.91.108 4.165.108 5.985-.827-.578-1.6-.91-2.786-.91-4.165 0-5.71 3.642-5.71 7.916 0 3.31 1.52 6.455 4.605 6.455 1.904 0 3.09-.993 3.862-2.372h.108c0 .718 0 1.104-.055 1.877 0 .19.082.248.165.248.52-.084.966-.084 1.406-.084.635 0 1.602.055 2.208.108.055 0 .083-.11.083-.19s-.027-.194-.082-.223l-.91-.332c-.713-.246-.823-.303-.852-.633m-1.93-5.654c0 3.696-.8 6.232-3.254 6.232-2.373 0-3.09-2.896-3.09-6.426 0-3.146.883-6.123 3.42-6.123 2.62 0 2.924 1.764 2.924 6.316m16.604-.442c0-3.944-1.9-6.674-5.434-6.674-3.808 0-5.654 3.365-5.654 7.61 0 4.14 2.016 6.98 5.57 6.98 4.083 0 5.518-4.082 5.518-7.916m-8.8.47c0-3.366.856-6.29 3.256-6.29 2.813 0 3.254 3.807 3.254 6.428 0 2.592-.385 6.398-3.005 6.398-2.51 0-3.504-2.594-3.504-6.537m14.813 5.82c-.028-.55-.083-3.256-.083-5.682v-.276c0-6.7.083-12.3.138-13.46 0-.136 0-.274-.165-.274-1.104.165-2.646.25-3.944.25-.026 0-.057.11-.057.192 0 .055 0 .138.056.193l.77.248c.966.303 1.022.33 1.05.772.055.91.082 5.407.082 12.08v.276c0 2.43-.027 5.132-.083 5.683-.026.166-.084.222-1.407.662l-.497.166c-.055.027-.055.11-.055.192 0 .057 0 .165.056.165.993-.082 1.768-.108 2.813-.108 1.02 0 2.205.025 3.17.107.028 0 .057-.108.057-.165 0-.083 0-.165-.056-.19l-.52-.167c-1.272-.386-1.3-.468-1.327-.662m6.95 6.233c-.057-.522-.083-2.537-.083-3.723v-1.848h.108c.773.496 1.85.744 2.842.744 3.916 0 5.518-3.532 5.518-7.89 0-3.033-.578-6.48-4.633-6.48-1.738 0-2.896.826-3.835 2.013h-.14l.058-1.407c0-.138-.028-.275-.193-.275-1.13.167-2.345.25-3.613.25-.056 0-.083.11-.083.192 0 .055 0 .14.082.193l.827.248c.91.248.937.277.965.662.058.91.082 2.95.082 5.13v.276c0 2.43-.055 11.392-.082 11.917-.026.166-.056.22-1.405.688l-.47.165c-.056.027-.056.11-.056.19 0 .06 0 .167.055.167.965-.082 1.875-.108 2.923-.108.993 0 2.068.025 3.034.107.058 0 .058-.108.058-.166 0-.08 0-.163-.058-.19l-.496-.165c-1.324-.44-1.38-.496-1.406-.69m-.14-13.018c0-3.585 1.324-5.13 3.448-5.13 2.29 0 2.87 2.703 2.87 6.397 0 4.192-1.215 6.04-3.587 6.04-.992 0-2.04-.412-2.565-1.13-.136-1.046-.165-4.3-.165-6.177m14.508-12.633c0-.137-.026-.275-.165-.275-1.132.164-2.594.248-3.835.248-.055 0-.082.11-.082.193 0 .056 0 .14.083.194l.773.248c.965.303.992.33 1.048.772.058.91.082 5.38.082 12.357 0 2.427 0 5.132-.055 5.683-.026.164-.082.22-1.406.662l-.496.164c-.056.026-.056.108-.056.19 0 .057 0 .166.056.166.993-.082 1.793-.11 2.842-.11 1.02 0 2.15.028 3.116.11.056 0 .056-.11.056-.165 0-.082 0-.165-.056-.19l-.522-.165c-1.298-.388-1.38-.47-1.407-.662-.026-.55-.057-2.594-.057-3.778V30.51c.39-1.628 1.572-2.87 3.34-2.87 2.262 0 2.427 1.38 2.427 3.53v2.512c0 3.364-.027 5.047-.082 5.683-.028.163-.056.192-1.406.66l-.47.165c-.056.028-.056.11-.056.193 0 .055 0 .165.055.165.965-.082 1.875-.11 2.923-.11.993 0 2.014.028 2.98.11.024 0 .055-.11.055-.165 0-.083 0-.166-.056-.193l-.496-.164c-1.323-.44-1.354-.47-1.382-.66-.025-.553-.025-3.092-.025-4.167v-.58c0-2.263.055-3.642.055-4.993 0-2.427-1.793-3.23-3.56-3.23-1.93 0-3.28.885-4.247 2.208h-.082c-.003-2.29.024-7.31.107-8.66m17.625 14.287c.11 0 .11-.056.11-.193v-1.353c0-.11 0-.166-.11-.166h-5.734c-.084 0-.11.057-.11.193v1.353c0 .11.026.166.11.166h5.734zm9.295-4.33c1.653-1.82 5.13-5.544 5.79-6.15.496-.47 1.05-.8 1.602-.94l.386-.11c.058-.027.058-.082.058-.22 0-.11 0-.193-.057-.193-.577.082-1.847.11-2.645.11-.69 0-1.932-.028-2.678-.11-.024 0-.055.11-.055.165 0 .083 0 .22.055.248l.39.11c.992.303 1.268.414 1.268.662 0 .414-3.172 4.138-6.26 7.282v.193c1.35 1.517 5.818 7.42 6.26 8.44 0 .192-.19.303-1.02.55l-.638.193c-.055.056-.055.14-.055.222 0 .14 0 .192.055.192 1.134-.082 2.208-.108 3.092-.108.853 0 2.013.025 3.06.107.056 0 .084-.055.084-.192 0-.082 0-.166-.083-.222l-.495-.166c-.663-.22-.8-.386-1.215-.883-1.076-1.376-5.242-6.92-6.897-9.182m-3.53-7.503c-.828 0-2.207-.028-3.338-.11-.027 0-.057.054-.057.192 0 .083 0 .166.057.22l.635.194c1.49.47 1.517.524 1.545.745.082 2.4.082 5.435.082 7.063v.275c0 1.6 0 5.818-.082 8.19-.028.248-.083.274-1.573.77l-.58.194c-.054.055-.054.14-.054.22 0 .14.027.194.055.194 1.134-.082 2.455-.11 3.313-.11.8 0 2.18.028 3.254.11.028 0 .056-.055.056-.193 0-.082 0-.166-.056-.22l-.607-.194c-1.486-.47-1.6-.523-1.6-.772-.055-2.372-.055-6.593-.055-8.19v-.275c0-1.628 0-4.77.055-7.062.028-.22.11-.275 1.6-.744l.607-.193c.056-.055.056-.11.056-.193 0-.11 0-.22-.056-.22-1.107.082-2.43.11-3.257.11m23.637 10.674c0-3.944-1.9-6.674-5.432-6.674-3.81 0-5.655 3.365-5.655 7.61 0 4.14 2.014 6.98 5.57 6.98 4.083 0 5.517-4.082 5.517-7.916m-8.798.47c0-3.366.854-6.29 3.254-6.29 2.813 0 3.256 3.807 3.256 6.428 0 2.592-.387 6.398-3.007 6.398-2.51 0-3.503-2.594-3.503-6.537m14.81 5.82c-.025-.55-.082-3.256-.082-5.682v-.276c0-6.7.083-12.3.14-13.46 0-.136 0-.274-.165-.274-1.104.165-2.647.25-3.944.25-.026 0-.054.11-.054.192 0 .055 0 .138.055.193l.773.248c.966.303 1.02.33 1.05.772.054.91.08 5.407.08 12.08v.276c0 2.43-.026 5.132-.08 5.683-.03.166-.084.222-1.408.662l-.496.166c-.057.027-.057.11-.057.192 0 .057 0 .165.056.165.99-.082 1.766-.108 2.812-.108 1.02 0 2.207.025 3.173.107.028 0 .055-.108.055-.165 0-.083 0-.165-.055-.19l-.524-.167c-1.27-.386-1.3-.468-1.327-.662m6.95 6.233c-.055-.522-.082-2.537-.082-3.723v-1.848h.11c.772.496 1.85.744 2.842.744 3.916 0 5.517-3.532 5.517-7.89 0-3.033-.58-6.48-4.635-6.48-1.736 0-2.896.826-3.834 2.013h-.138l.055-1.407c0-.138-.024-.275-.19-.275-1.133.167-2.346.25-3.613.25-.055 0-.083.11-.083.192 0 .055 0 .14.084.193l.828.248c.91.248.938.277.965.662.056.91.083 2.95.083 5.13v.276c0 2.43-.055 11.392-.083 11.917-.027.166-.056.22-1.406.688l-.47.165c-.055.027-.055.11-.055.19 0 .06 0 .167.056.167.966-.082 1.877-.108 2.925-.108.994 0 2.07.025 3.035.107.054 0 .054-.108.054-.166 0-.08 0-.163-.054-.19l-.498-.165c-1.325-.44-1.38-.496-1.408-.69m-.137-13.018c0-3.585 1.323-5.13 3.447-5.13 2.29 0 2.867 2.703 2.867 6.397 0 4.192-1.214 6.04-3.586 6.04-.99 0-2.042-.412-2.563-1.13-.137-1.046-.163-4.3-.163-6.177m14.507 6.786c-.027-.55-.027-3.256-.027-5.682v-.276c0-2.205.027-5.24.11-6.397 0-.138-.027-.274-.193-.274-1.073.164-2.563.248-3.834.248-.056 0-.08.11-.08.193 0 .056 0 .138.08.193l.802.25c.965.302.992.33 1.02.77.06.91.084 2.843.084 5.02v.277c0 2.426-.025 5.13-.055 5.682 0 .164-.14.22-1.462.662l-.496.164c-.055.03-.055.11-.055.193 0 .056 0 .165.055.165.994-.08 1.82-.11 2.87-.11 1.02 0 2.065.03 3.03.11.028 0 .058-.11.058-.165 0-.082 0-.166-.058-.192l-.52-.163c-1.19-.388-1.3-.47-1.328-.664m-1.076-18.674c-.91 0-1.405.716-1.405 1.516 0 .855.494 1.6 1.405 1.6.91 0 1.437-.744 1.437-1.6-.002-.8-.526-1.517-1.437-1.517m8.33 18.673c-.055-.55-.055-2.594-.055-3.778V30.51c.386-1.628 1.57-2.87 3.336-2.87 2.26 0 2.428 1.38 2.428 3.53v2.512c0 3.364-.025 5.047-.083 5.683-.026.163-.055.192-1.404.66l-.47.165c-.056.028-.056.11-.056.193 0 .055 0 .165.056.165.965-.082 1.875-.11 2.924-.11.992 0 2.015.028 2.98.11.027 0 .055-.11.055-.165 0-.083 0-.166-.057-.193l-.495-.164c-1.353-.44-1.353-.47-1.38-.66-.028-.553-.028-3.092-.028-4.167v-.58c0-2.263.058-3.642.058-4.993 0-2.427-1.792-3.23-3.56-3.23-1.932 0-3.282.885-4.303 2.317h-.083l.055-1.71c0-.138-.025-.274-.22-.274-1.105.164-2.428.248-3.67.248-.055 0-.08.11-.08.192 0 .056 0 .138.08.192l.828.25c.91.274.938.303.993.662.056.91.083 2.95.083 5.13v.276c0 2.426 0 5.13-.057 5.682-.025.164-.082.22-1.406.662l-.495.164c-.057.028-.057.11-.057.192 0 .056 0 .165.057.165.992-.082 1.794-.11 2.842-.11 1.02 0 2.15.028 3.117.11.056 0 .056-.11.056-.165 0-.083 0-.166-.055-.192l-.523-.164c-1.298-.385-1.38-.467-1.41-.66m22.26-12.634l-3.063.248c-.8-.414-1.93-.58-2.647-.58-2.98 0-4.908 2.014-4.908 5.047 0 1.986.77 3.504 2.23 4.22-1.048 1.05-1.82 2.29-1.82 3.23 0 .8.662 1.13 1.96 1.295v.058c-1.902 1.46-2.897 2.84-2.897 4.495 0 2.234 1.986 3.008 3.944 3.008 2.813 0 7.393-1.736 7.393-5.874 0-2.398-1.766-2.813-3.807-2.95l-2.98-.192c-1.02-.058-1.9-.166-1.9-1.104 0-.497.304-1.27.66-1.82.415.14 1.272.25 1.738.25 2.842 0 4.94-1.657 4.94-5.077 0-.99-.307-2.262-.94-3.032l2.18-.66-.084-.56zm-9.434 17.404c0-1.6.91-3.172 2.015-3.807l2.234.192c2.123.19 3.392.497 3.392 2.345 0 2.593-2.124 3.832-4.604 3.832-1.603.002-3.037-.605-3.037-2.563m6.178-12.964c0 2.346-.77 4.11-2.675 4.11-1.82 0-2.593-1.768-2.593-4 0-2.455.745-4.083 2.73-4.083 2.098.002 2.54 1.684 2.54 3.973m11.5 3.062c.11 0 .11-.056.11-.193v-1.353c0-.11 0-.166-.11-.166h-5.734c-.083 0-.11.057-.11.193v1.353c0 .11.027.166.11.166h5.734zm5.766 6.206c1.13 0 2.066.193 3.362.193 3.643 0 5.768-1.93 5.768-5.13 0-3.393-2.62-4.303-4.91-4.496v-.082c2.18-.275 4.303-1.545 4.303-4.413 0-3.477-2.454-4.305-4.937-4.305-1.354 0-2.813.193-3.696.193-.854 0-2.096-.027-3.227-.11-.028 0-.057.055-.057.193 0 .084 0 .167.057.222l.634.193c1.49.47 1.518.524 1.546.745.082 2.4.082 5.434.082 7.062v.274c0 1.6 0 5.82-.082 8.19-.028.25-.084.274-1.573.772l-.58.192c-.055.056-.055.14-.055.222 0 .14.028.192.056.192 1.13-.078 2.455-.106 3.31-.106m.992-8.936h.967c2.646 0 4.854.605 4.854 3.89 0 3.725-2.095 4.33-4.354 4.33-.414 0-.91-.028-1.38-.138-.056-.91-.082-5.46-.082-6.4l-.004-1.682zm0-3.28c0-1.298.027-3.67.082-4.995.636-.083.91-.11 1.685-.11 1.93 0 3.42.772 3.42 3.613 0 3.254-2.18 3.834-4.082 3.834h-1.104V28.22zm20.273 10.424c-.055 0-.11.025-.22.108-.773.58-1.603.854-2.595.854-3.09 0-4.412-2.648-4.412-5.985 0-.274 0-.44.025-.744h7.035c.523 0 .744-.25.744-.993 0-2.565-.745-5.487-4.304-5.487-4.11 0-5.685 3.832-5.685 7.474 0 4.192 1.82 7.116 5.407 7.116 1.877 0 3.145-.744 4.165-1.766.083-.084.11-.14.11-.192.007-.137-.186-.386-.27-.386m-1.655-7.062c0 .22-.055.275-.44.305l-5.047.19c.14-2.592 1.05-4.88 3.09-4.88 2.232 0 2.397 2.15 2.397 4.19v.194zm7.972.966c0-2.18 1.213-4.274 2.784-4.274.66 0 .91.14 1.156.496h.223l.14-2.123c0-.167-.222-.25-.8-.25-1.463 0-2.62 1.353-3.504 3.146h-.085l.056-2.538c0-.138-.025-.274-.22-.274-1.103.166-2.4.248-3.643.248-.055 0-.083.11-.083.192 0 .056 0 .14.083.193l.828.248c.91.276.938.304.992.66.056.91.084 2.952.084 5.133v.274c0 2.428 0 5.13-.055 5.683-.028.166-.083.222-1.406.66l-.498.167c-.055.027-.055.11-.055.192 0 .056 0 .165.055.165.992-.083 1.766-.11 2.813-.11 1.02 0 2.067.027 3.033.11.027 0 .057-.11.057-.166 0-.083 0-.165-.057-.192l-.522-.166c-1.27-.385-1.296-.47-1.323-.66-.027-.553-.056-2.594-.056-3.778l.002-3.038zM287 40.163c0 .25.055.358.137.358.33-.056.883-.083 1.324-.083.745 0 1.628.056 2.316.11.057 0 .082-.056.082-.192 0-.082-.025-.193-.082-.223l-1.074-.357c-.606-.192-.662-.357-.69-.662-.027-.965-.054-2.4-.054-4V33.68c0-2.427.082-5.406.22-6.675 0-.165-.027-.274-.165-.274-1.104.165-2.537.25-4.027.25-.055 0-.083.055-.083.19 0 .084.028.167.083.193l1.02.305c.746.248.884.33.912.58.024.55.024 2.84.024 3.916v3.53c0 2.372-1.238 4.025-3.17 4.025-2.373 0-2.54-2.014-2.54-4.138V33.68c0-2.646.11-6.067.167-6.675 0-.138-.027-.274-.167-.274-1.187.165-2.538.25-4.025.25-.057 0-.082.055-.082.19 0 .084.025.167.082.193l1.048.277c.828.22.854.303.883.604.027.552.055 2.84.055 3.917v.58c0 2.37-.056 3.776-.056 4.633 0 3.035 2.068 3.586 3.64 3.586 1.656 0 3.2-.772 4.165-2.538h.058v1.74H287zm9.542-.8c-.058-.55-.083-1.71-.083-5.82v-5.627h2.287c.083 0 .11-.055.11-.193v-.58c0-.108-.027-.164-.11-.164h-2.288v-2.07c0-3.2.662-4.578 2.428-4.578.385 0 .468.11 1.13 2.206l.138.44c.027.084.058.14.11.14h.19c.083 0 .11-.056.11-.11l.25-3.035c0-.11 0-.138-.057-.165-.525-.11-1.214-.166-1.82-.166-1.736 0-4.635.993-4.635 4.33 0 1.38.056 1.96.056 3.006h-2.04c-.056 0-.083.057-.083.166v.58c0 .137.027.192.083.192h2.04v5.627c0 4.108-.024 5.213-.055 5.82-.055.165-.082.22-1.406.66l-.497.167c-.083.026-.083.108-.083.19 0 .058 0 .166.083.166.993-.082 1.793-.108 2.842-.108 1.02 0 2.262.026 3.228.108.056 0 .056-.108.056-.165 0-.082 0-.165-.057-.19l-.523-.166c-1.27-.385-1.38-.467-1.408-.66m6.812 1.626c3.56 0 5.05-2.04 5.05-4.247 0-2.18-1.298-3.035-3.173-4.083-1.46-.855-2.592-1.6-2.592-3.117 0-1.71 1.297-2.29 2.563-2.29.912 0 1.272.138 1.463.47.223.385.662 1.654.855 2.398l.083.304c.028.057.083.057.25.057.137 0 .19-.026.19-.083 0-.744.083-2.262.14-3.393 0-.11 0-.138-.057-.165-.8-.193-1.85-.36-2.813-.36-3.034 0-4.524 1.82-4.524 3.75 0 2.07 1.216 3.036 2.73 3.892 1.766.993 3.09 1.792 3.09 3.53 0 1.82-1.545 2.48-2.98 2.48-1.187 0-1.49-.11-1.793-.772-.192-.47-.553-1.627-.688-2.233l-.082-.356c-.03-.056-.084-.056-.222-.056-.11 0-.222.028-.222.083 0 .47-.138 2.595-.248 3.668 0 .11.057.14.11.166.834.25 1.828.36 2.874.36m10.975-1.627c-.055-.55-.083-3.256-.083-5.682v-.69c2.07 2.455 4.855 6.07 4.855 6.373 0 .275-.056.304-1.02.688l-.36.14c-.055.027-.08.108-.08.19 0 .057.025.166.08.166 1.132-.11 1.794-.11 2.787-.11.99 0 1.6 0 2.59.11.057 0 .085-.11.085-.165 0-.082 0-.165-.084-.19l-.274-.11c-.47-.193-.938-.44-1.213-.717-.44-.47-3.528-4.606-5.463-7.062 1.573-1.352 2.98-2.646 4.524-4 .522-.47.993-.687 1.545-.908l.414-.166c.054-.027.08-.11.08-.193 0-.055-.026-.166-.08-.166-.607.083-1.49.11-2.318.11-.718 0-1.792-.057-2.537-.11-.057 0-.084.11-.084.166 0 .083 0 .166.083.193l.274.082c.91.274 1.13.414 1.13.688 0 .33-1.792 2.067-4.937 4.77v-.22c0-6.703.057-11.447.11-12.605 0-.136 0-.274-.14-.274-1.158.165-2.537.25-3.834.25-.057 0-.083.11-.083.192 0 .055 0 .138.083.193l.77.25c.967.302 1.022.33 1.05.77.057.91.083 5.407.083 12.08v.277c0 2.427-.026 5.132-.084 5.683-.025.164-.082.22-1.404.662l-.497.164c-.055.028-.055.11-.055.192 0 .056 0 .165.056.165.994-.082 1.767-.11 2.814-.11 1.02 0 1.933.028 2.896.11.028 0 .057-.11.057-.165 0-.083 0-.166-.057-.192l-.495-.164c-1.102-.383-1.155-.465-1.186-.66m20.607-6.288c0-3.944-1.903-6.674-5.434-6.674-3.81 0-5.654 3.365-5.654 7.61 0 4.14 2.013 6.98 5.57 6.98 4.082 0 5.517-4.082 5.517-7.916m-8.8.47c0-3.366.855-6.29 3.255-6.29 2.813 0 3.255 3.807 3.255 6.428 0 2.592-.386 6.398-3.006 6.398-2.51 0-3.502-2.594-3.502-6.537m14.81 5.82c-.026-.55-.083-3.256-.083-5.682v-.276c0-6.7.083-12.3.14-13.46 0-.136 0-.274-.165-.274-1.104.165-2.647.25-3.944.25-.027 0-.056.11-.056.192 0 .055 0 .138.056.193l.77.248c.968.303 1.022.33 1.05.772.056.91.083 5.407.083 12.08v.276c0 2.43-.028 5.132-.084 5.683-.027.166-.082.222-1.406.662l-.496.166c-.056.027-.056.11-.056.192 0 .057 0 .165.056.165.992-.082 1.765-.108 2.813-.108 1.02 0 2.207.025 3.174.107.026 0 .057-.108.057-.165 0-.083 0-.165-.056-.19l-.522-.167c-1.274-.386-1.3-.468-1.33-.662m7.28 0c-.025-.55-.08-3.256-.08-5.682v-.276c0-6.7.08-12.3.137-13.46 0-.136 0-.274-.165-.274-1.104.165-2.646.25-3.942.25-.028 0-.057.11-.057.192 0 .055 0 .138.058.193l.77.248c.966.303 1.022.33 1.05.772.056.91.083 5.407.083 12.08v.276c0 2.43-.026 5.132-.083 5.683-.026.166-.083.222-1.405.662l-.495.166c-.058.027-.058.11-.058.192 0 .057 0 .165.057.165.992-.082 1.765-.108 2.813-.108 1.02 0 2.207.025 3.172.107.028 0 .058-.108.058-.165 0-.083 0-.165-.058-.19l-.52-.167c-1.28-.386-1.304-.468-1.333-.662m12.88-.717c-.054 0-.107.025-.22.108-.772.58-1.602.854-2.593.854-3.09 0-4.413-2.648-4.413-5.985 0-.274 0-.44.025-.744h7.032c.524 0 .745-.25.745-.993 0-2.565-.745-5.487-4.303-5.487-4.11 0-5.685 3.832-5.685 7.474 0 4.192 1.82 7.116 5.406 7.116 1.875 0 3.146-.744 4.164-1.766.084-.084.11-.14.11-.192.006-.137-.187-.386-.27-.386m-1.656-7.062c0 .22-.056.275-.44.305l-5.046.19c.138-2.592 1.048-4.88 3.09-4.88 2.23 0 2.396 2.15 2.396 4.19v.194zm15.255-4.854l-3.064.248c-.8-.414-1.932-.58-2.647-.58-2.98 0-4.91 2.014-4.91 5.047 0 1.986.772 3.504 2.233 4.22-1.05 1.05-1.818 2.29-1.818 3.23 0 .8.66 1.13 1.958 1.295v.058c-1.903 1.46-2.896 2.84-2.896 4.495 0 2.234 1.986 3.008 3.944 3.008 2.814 0 7.393-1.736 7.393-5.874 0-2.398-1.765-2.813-3.806-2.95l-2.98-.192c-1.02-.058-1.9-.166-1.9-1.104 0-.497.304-1.27.662-1.82.41.14 1.27.25 1.735.25 2.842 0 4.938-1.657 4.938-5.077 0-.99-.307-2.262-.938-3.032l2.18-.66-.086-.56zm-9.435 17.404c0-1.6.91-3.172 2.014-3.807l2.233.192c2.124.19 3.396.497 3.396 2.345 0 2.593-2.126 3.832-4.608 3.832-1.603.002-3.037-.605-3.037-2.563m6.177-12.964c0 2.346-.77 4.11-2.676 4.11-1.82 0-2.592-1.768-2.592-4 0-2.455.744-4.083 2.73-4.083 2.1.002 2.538 1.684 2.538 3.973"/></svg>